<?xml version="1.0" standalone="yes"?>

<svg version="1.1" viewBox="0.0 0.0 960.0 424.0" fill="none" stroke="none" stroke-linecap="square" stroke-miterlimit="10" xmlns="http://www.w3.org/2000/svg" xmlns:xlink="http://www.w3.org/1999/xlink"><clipPath id="p.0"><path d="m0 0l960.0 0l0 424.0l-960.0 0l0 -424.0z" clip-rule="nonzero"></path></clipPath><g clip-path="url(#p.0)"><path fill="#ffffff" d="m0 0l960.8819 0l0 424.41208l-960.8819 0z" fill-rule="nonzero"></path><path fill="#1f77b4" d="m59.85827 285.79004l0 0c0 -11.306641 15.955582 -20.472443 35.637794 -20.472443l0 0c19.682213 0 35.637802 9.165802 35.637802 20.472443l0 0c0 11.30661 -15.955589 20.472443 -35.637802 20.472443l0 0c-19.682213 0 -35.637794 -9.1658325 -35.637794 -20.472443z" fill-rule="nonzero"></path><path stroke="#000000" stroke-width="1.0" stroke-linejoin="round" stroke-linecap="butt" d="m59.85827 285.79004l0 0c0 -11.306641 15.955582 -20.472443 35.637794 -20.472443l0 0c19.682213 0 35.637802 9.165802 35.637802 20.472443l0 0c0 11.30661 -15.955589 20.472443 -35.637802 20.472443l0 0c-19.682213 0 -35.637794 -9.1658325 -35.637794 -20.472443z" fill-rule="nonzero"></path><path fill="#ffffff" d="m90.62026 292.71002l0 -3.25l-5.90625 0l0 -1.53125l6.21875 -8.8125l1.359375 0l0 8.8125l1.84375 0l0 1.53125l-1.84375 0l0 3.25l-1.671875 0zm0 -4.78125l0 -6.140625l-4.25 6.140625l4.25 0zm5.016342 1.21875l1.765625 -0.15625q0.1875 1.28125 0.890625 1.9375q0.71875 0.640625 1.71875 0.640625q1.203125 0 2.03125 -0.90625q0.84375 -0.90625 0.84375 -2.421875q0 -1.421875 -0.8125 -2.25q-0.796875 -0.828125 -2.09375 -0.828125q-0.796875 0 -1.453125 0.375q-0.640625 0.359375 -1.015625 0.953125l-1.578125 -0.203125l1.328125 -7.0l6.765625 0l0 1.609375l-5.4375 0l-0.734375 3.640625q1.234375 -0.84375 2.578125 -0.84375q1.78125 0 3.0 1.234375q1.234375 1.234375 1.234375 3.171875q0 1.84375 -1.078125 3.1875q-1.3125 1.65625 -3.578125 1.65625q-1.859375 0 -3.03125 -1.03125q-1.171875 -1.046875 -1.34375 -2.765625z" fill-rule="nonzero"></path><path fill="#1f77b4" d="m252.80708 291.4908l0 0c0 -11.30661 15.955582 -20.472443 35.637802 -20.472443l0 0c19.68222 0 35.637787 9.1658325 35.637787 20.472443l0 0c0 11.30661 -15.955566 20.472443 -35.637787 20.472443l0 0c-19.68222 0 -35.637802 -9.1658325 -35.637802 -20.472443z" fill-rule="nonzero"></path><path stroke="#000000" stroke-width="1.0" stroke-linejoin="round" stroke-linecap="butt" d="m252.80708 291.4908l0 0c0 -11.30661 15.955582 -20.472443 35.637802 -20.472443l0 0c19.68222 0 35.637787 9.1658325 35.637787 20.472443l0 0c0 11.30661 -15.955566 20.472443 -35.637787 20.472443l0 0c-19.68222 0 -35.637802 -9.1658325 -35.637802 -20.472443z" fill-rule="nonzero"></path><path fill="#ffffff" d="m284.5066 298.4108l-1.671875 0l0 -10.640625q-0.59375 0.578125 -1.578125 1.15625q-0.984375 0.5625 -1.765625 0.859375l0 -1.625q1.40625 -0.65625 2.453125 -1.59375q1.046875 -0.9375 1.484375 -1.8125l1.078125 0l0 13.65625zm12.750702 -10.265625l-1.65625 0.125q-0.21875 -0.984375 -0.640625 -1.421875q-0.671875 -0.71875 -1.65625 -0.71875q-0.8125 0 -1.40625 0.4375q-0.796875 0.578125 -1.25 1.6875q-0.453125 1.09375 -0.46875 3.140625q0.609375 -0.921875 1.46875 -1.359375q0.875 -0.453125 1.828125 -0.453125q1.671875 0 2.84375 1.234375q1.171875 1.234375 1.171875 3.171875q0 1.28125 -0.546875 2.390625q-0.546875 1.09375 -1.515625 1.6875q-0.96875 0.578125 -2.1875 0.578125q-2.09375 0 -3.40625 -1.53125q-1.3125 -1.546875 -1.3125 -5.0625q0 -3.953125 1.453125 -5.734375q1.265625 -1.5625 3.421875 -1.5625q1.609375 0 2.625 0.90625q1.03125 0.890625 1.234375 2.484375zm-6.8125 5.859375q0 0.859375 0.359375 1.65625q0.375 0.78125 1.03125 1.203125q0.65625 0.40625 1.375 0.40625q1.0625 0 1.8125 -0.84375q0.765625 -0.859375 0.765625 -2.328125q0 -1.40625 -0.75 -2.21875q-0.75 -0.8125 -1.890625 -0.8125q-1.125 0 -1.921875 0.8125q-0.78125 0.8125 -0.78125 2.125z" fill-rule="nonzero"></path><path fill="#000000" fill-opacity="0.0" d="m57.27559 236.79002l76.44095 0l0 30.897629l-76.44095 0z" fill-rule="nonzero"></path><path fill="#000000" d="m66.072464 261.16815l0 -0.8125l7.578125 0l0 0.8125l-7.578125 0zm7.4124756 0l0 -0.8125l7.578125 0l0 0.8125l-7.578125 0zm12.849976 -2.578125l0 -0.84375q-0.640625 1.0 -1.890625 1.0q-0.796875 0 -1.484375 -0.4375q-0.671875 -0.453125 -1.046875 -1.25q-0.375 -0.796875 -0.375 -1.828125q0 -1.015625 0.34375 -1.828125q0.34375 -0.828125 1.015625 -1.265625q0.671875 -0.4375 1.5 -0.4375q0.609375 0 1.078125 0.265625q0.484375 0.25 0.78125 0.65625l0 -3.34375l1.140625 0l0 9.3125l-1.0625 0zm-3.609375 -3.359375q0 1.296875 0.53125 1.9375q0.546875 0.640625 1.296875 0.640625q0.75 0 1.265625 -0.609375q0.53125 -0.625 0.53125 -1.875q0 -1.390625 -0.53125 -2.03125q-0.53125 -0.65625 -1.3125 -0.65625q-0.765625 0 -1.28125 0.625q-0.5 0.625 -0.5 1.96875zm11.037476 2.53125q-0.625 0.53125 -1.21875 0.765625q-0.578125 0.21875 -1.25 0.21875q-1.125 0 -1.71875 -0.546875q-0.59375 -0.546875 -0.59375 -1.390625q0 -0.484375 0.21875 -0.890625q0.234375 -0.421875 0.59375 -0.671875q0.375 -0.25 0.828125 -0.375q0.328125 -0.078125 1.015625 -0.171875q1.375 -0.15625 2.03125 -0.390625q0.015625 -0.234375 0.015625 -0.296875q0 -0.703125 -0.328125 -0.984375q-0.4375 -0.390625 -1.296875 -0.390625q-0.8125 0 -1.203125 0.28125q-0.375 0.28125 -0.5625 1.0l-1.109375 -0.140625q0.140625 -0.71875 0.484375 -1.15625q0.359375 -0.453125 1.015625 -0.6875q0.671875 -0.234375 1.53125 -0.234375q0.875 0 1.40625 0.203125q0.546875 0.203125 0.796875 0.515625q0.25 0.296875 0.359375 0.765625q0.046875 0.296875 0.046875 1.0625l0 1.515625q0 1.59375 0.078125 2.015625q0.078125 0.421875 0.28125 0.8125l-1.1875 0q-0.171875 -0.359375 -0.234375 -0.828125zm-0.09375 -2.5625q-0.625 0.265625 -1.859375 0.4375q-0.703125 0.109375 -1.0 0.234375q-0.296875 0.125 -0.453125 0.375q-0.15625 0.234375 -0.15625 0.53125q0 0.453125 0.34375 0.765625q0.34375 0.296875 1.015625 0.296875q0.65625 0 1.171875 -0.28125q0.515625 -0.296875 0.765625 -0.796875q0.171875 -0.375 0.171875 -1.140625l0 -0.421875zm5.6156006 2.375l0.15625 1.0q-0.484375 0.109375 -0.859375 0.109375q-0.625 0 -0.96875 -0.203125q-0.34375 -0.203125 -0.484375 -0.515625q-0.140625 -0.328125 -0.140625 -1.34375l0 -3.890625l-0.828125 0l0 -0.875l0.828125 0l0 -1.671875l1.140625 -0.6875l0 2.359375l1.15625 0l0 0.875l-1.15625 0l0 3.953125q0 0.484375 0.0625 0.625q0.0625 0.140625 0.1875 0.21875q0.140625 0.078125 0.390625 0.078125q0.203125 0 0.515625 -0.03125zm5.5936127 0.1875q-0.625 0.53125 -1.21875 0.765625q-0.578125 0.21875 -1.25 0.21875q-1.125 0 -1.71875 -0.546875q-0.59375 -0.546875 -0.59375 -1.390625q0 -0.484375 0.21875 -0.890625q0.234375 -0.421875 0.59375 -0.671875q0.375 -0.25 0.828125 -0.375q0.328125 -0.078125 1.015625 -0.171875q1.375 -0.15625 2.03125 -0.390625q0.015625 -0.234375 0.015625 -0.296875q0 -0.703125 -0.328125 -0.984375q-0.4375 -0.390625 -1.296875 -0.390625q-0.8125 0 -1.203125 0.28125q-0.375 0.28125 -0.5625 1.0l-1.109375 -0.140625q0.140625 -0.71875 0.484375 -1.15625q0.359375 -0.453125 1.015625 -0.6875q0.671875 -0.234375 1.53125 -0.234375q0.875 0 1.40625 0.203125q0.546875 0.203125 0.796875 0.515625q0.25 0.296875 0.359375 0.765625q0.046875 0.296875 0.046875 1.0625l0 1.515625q0 1.59375 0.078125 2.015625q0.078125 0.421875 0.28125 0.8125l-1.1875 0q-0.171875 -0.359375 -0.234375 -0.828125zm-0.09375 -2.5625q-0.625 0.265625 -1.859375 0.4375q-0.703125 0.109375 -1.0 0.234375q-0.296875 0.125 -0.453125 0.375q-0.15625 0.234375 -0.15625 0.53125q0 0.453125 0.34375 0.765625q0.34375 0.296875 1.015625 0.296875q0.65625 0 1.171875 -0.28125q0.515625 -0.296875 0.765625 -0.796875q0.171875 -0.375 0.171875 -1.140625l0 -0.421875zm2.0531006 5.96875l0 -0.8125l7.578125 0l0 0.8125l-7.578125 0zm7.4124756 0l0 -0.8125l7.578125 0l0 0.8125l-7.578125 0z" fill-rule="nonzero"></path><path fill="#000000" fill-opacity="0.0" d="m250.22441 240.12073l76.44093 0l0 30.897644l-76.44093 0z" fill-rule="nonzero"></path><path fill="#000000" d="m259.02127 264.49887l0 -0.8125l7.578125 0l0 0.8125l-7.578125 0zm7.4124756 0l0 -0.8125l7.578125 0l0 0.8125l-7.578125 0zm12.849976 -2.578125l0 -0.84375q-0.640625 1.0 -1.890625 1.0q-0.796875 0 -1.484375 -0.4375q-0.671875 -0.453125 -1.046875 -1.25q-0.375 -0.796875 -0.375 -1.828125q0 -1.015625 0.34375 -1.828125q0.34375 -0.82814026 1.015625 -1.2656403q0.671875 -0.4375 1.5 -0.4375q0.609375 0 1.078125 0.265625q0.484375 0.25 0.78125 0.65625l0 -3.34375l1.140625 0l0 9.312515l-1.0625 0zm-3.609375 -3.359375q0 1.296875 0.53125 1.9375q0.546875 0.640625 1.296875 0.640625q0.75 0 1.265625 -0.609375q0.53125 -0.625 0.53125 -1.875q0 -1.390625 -0.53125 -2.03125q-0.53125 -0.65626526 -1.3125 -0.65626526q-0.765625 0 -1.28125 0.62501526q-0.5 0.625 -0.5 1.96875zm11.037476 2.53125q-0.625 0.53125 -1.21875 0.765625q-0.578125 0.21875 -1.25 0.21875q-1.125 0 -1.71875 -0.546875q-0.59375 -0.546875 -0.59375 -1.390625q0 -0.484375 0.21875 -0.890625q0.234375 -0.421875 0.59375 -0.671875q0.375 -0.25 0.828125 -0.375q0.328125 -0.078125 1.015625 -0.171875q1.375 -0.15625 2.03125 -0.390625q0.015625 -0.234375 0.015625 -0.296875q0 -0.703125 -0.328125 -0.984375q-0.4375 -0.39064026 -1.296875 -0.39064026q-0.8125 0 -1.203125 0.28126526q-0.375 0.28125 -0.5625 1.0l-1.109375 -0.140625q0.140625 -0.71875 0.484375 -1.1562653q0.359375 -0.453125 1.015625 -0.6875q0.671875 -0.234375 1.53125 -0.234375q0.875 0 1.40625 0.203125q0.546875 0.203125 0.796875 0.515625q0.25 0.29689026 0.359375 0.76564026q0.046875 0.296875 0.046875 1.0625l0 1.515625q0 1.59375 0.078125 2.015625q0.078125 0.421875 0.28125 0.8125l-1.1875 0q-0.171875 -0.359375 -0.234375 -0.828125zm-0.09375 -2.5625q-0.625 0.265625 -1.859375 0.4375q-0.703125 0.109375 -1.0 0.234375q-0.296875 0.125 -0.453125 0.375q-0.15625 0.234375 -0.15625 0.53125q0 0.453125 0.34375 0.765625q0.34375 0.296875 1.015625 0.296875q0.65625 0 1.171875 -0.28125q0.515625 -0.296875 0.765625 -0.796875q0.171875 -0.375 0.171875 -1.140625l0 -0.421875zm5.6156006 2.375l0.15625 1.0q-0.484375 0.109375 -0.859375 0.109375q-0.625 0 -0.96875 -0.203125q-0.34375 -0.203125 -0.484375 -0.515625q-0.140625 -0.328125 -0.140625 -1.34375l0 -3.890625l-0.828125 0l0 -0.87501526l0.828125 0l0 -1.671875l1.140625 -0.6875l0 2.359375l1.15625 0l0 0.87501526l-1.15625 0l0 3.953125q0 0.484375 0.0625 0.625q0.0625 0.140625 0.1875 0.21875q0.140625 0.078125 0.390625 0.078125q0.203125 0 0.515625 -0.03125zm5.593628 0.1875q-0.625 0.53125 -1.21875 0.765625q-0.578125 0.21875 -1.25 0.21875q-1.125 0 -1.71875 -0.546875q-0.59375 -0.546875 -0.59375 -1.390625q0 -0.484375 0.21875 -0.890625q0.234375 -0.421875 0.59375 -0.671875q0.375 -0.25 0.828125 -0.375q0.328125 -0.078125 1.015625 -0.171875q1.375 -0.15625 2.03125 -0.390625q0.015625 -0.234375 0.015625 -0.296875q0 -0.703125 -0.328125 -0.984375q-0.4375 -0.39064026 -1.296875 -0.39064026q-0.8125 0 -1.203125 0.28126526q-0.375 0.28125 -0.5625 1.0l-1.109375 -0.140625q0.140625 -0.71875 0.484375 -1.1562653q0.359375 -0.453125 1.015625 -0.6875q0.671875 -0.234375 1.53125 -0.234375q0.875 0 1.40625 0.203125q0.546875 0.203125 0.796875 0.515625q0.25 0.29689026 0.359375 0.76564026q0.046875 0.296875 0.046875 1.0625l0 1.515625q0 1.59375 0.078125 2.015625q0.078125 0.421875 0.28125 0.8125l-1.1875 0q-0.171875 -0.359375 -0.234375 -0.828125zm-0.09375 -2.5625q-0.625 0.265625 -1.859375 0.4375q-0.703125 0.109375 -1.0 0.234375q-0.296875 0.125 -0.453125 0.375q-0.15625 0.234375 -0.15625 0.53125q0 0.453125 0.34375 0.765625q0.34375 0.296875 1.015625 0.296875q0.65625 0 1.171875 -0.28125q0.515625 -0.296875 0.765625 -0.796875q0.171875 -0.375 0.171875 -1.140625l0 -0.421875zm2.0531006 5.96875l0 -0.8125l7.578125 0l0 0.8125l-7.578125 0zm7.4124756 0l0 -0.8125l7.578125 0l0 0.8125l-7.578125 0z" fill-rule="nonzero"></path><path fill="#000000" fill-opacity="0.0" d="m793.22833 157.35695l100.09448 0l0 40.944885l-100.09448 0z" fill-rule="nonzero"></path><path fill="#000000" d="m803.47833 188.0582l0 -13.640625l1.53125 0l0 1.28125q0.53125 -0.75 1.203125 -1.125q0.6875 -0.375 1.640625 -0.375q1.265625 0 2.234375 0.65625q0.96875 0.640625 1.453125 1.828125q0.5 1.1875 0.5 2.59375q0 1.515625 -0.546875 2.734375q-0.546875 1.203125 -1.578125 1.84375q-1.03125 0.640625 -2.171875 0.640625q-0.84375 0 -1.515625 -0.34375q-0.65625 -0.359375 -1.078125 -0.890625l0 4.796875l-1.671875 0zm1.515625 -8.65625q0 1.90625 0.765625 2.8125q0.78125 0.90625 1.875 0.90625q1.109375 0 1.890625 -0.9375q0.796875 -0.9375 0.796875 -2.921875q0 -1.875 -0.78125 -2.8125q-0.765625 -0.9375 -1.84375 -0.9375q-1.0625 0 -1.890625 1.0q-0.8125 1.0 -0.8125 2.890625zm9.328857 4.875l0 -1.90625l1.90625 0l0 1.90625l-1.90625 0zm11.464539 -3.171875l1.71875 0.21875q-0.40625 1.5 -1.515625 2.34375q-1.09375 0.828125 -2.8125 0.828125q-2.15625 0 -3.421875 -1.328125q-1.265625 -1.328125 -1.265625 -3.734375q0 -2.484375 1.265625 -3.859375q1.28125 -1.375 3.328125 -1.375q1.984375 0 3.234375 1.34375q1.25 1.34375 1.25 3.796875q0 0.140625 -0.015625 0.4375l-7.34375 0q0.09375 1.625 0.921875 2.484375q0.828125 0.859375 2.0625 0.859375q0.90625 0 1.546875 -0.46875q0.65625 -0.484375 1.046875 -1.546875zm-5.484375 -2.703125l5.5 0q-0.109375 -1.234375 -0.625 -1.859375q-0.796875 -0.96875 -2.078125 -0.96875q-1.140625 0 -1.9375 0.78125q-0.78125 0.765625 -0.859375 2.046875zm9.110107 5.875l0 -9.859375l1.5 0l0 1.40625q1.09375 -1.625 3.140625 -1.625q0.890625 0 1.640625 0.328125q0.75 0.3125 1.109375 0.84375q0.375 0.515625 0.53125 1.21875q0.09375 0.46875 0.09375 1.625l0 6.0625l-1.671875 0l0 -6.0q0 -1.015625 -0.203125 -1.515625q-0.1875 -0.515625 -0.6875 -0.8125q-0.5 -0.296875 -1.171875 -0.296875q-1.0625 0 -1.84375 0.671875q-0.765625 0.671875 -0.765625 2.578125l0 5.375l-1.671875 0zm14.031982 -1.5l0.234375 1.484375q-0.703125 0.140625 -1.265625 0.140625q-0.90625 0 -1.40625 -0.28125q-0.5 -0.296875 -0.703125 -0.75q-0.203125 -0.46875 -0.203125 -1.984375l0 -5.65625l-1.234375 0l0 -1.3125l1.234375 0l0 -2.4375l1.65625 -1.0l0 3.4375l1.6875 0l0 1.3125l-1.6875 0l0 5.75q0 0.71875 0.078125 0.921875q0.09375 0.203125 0.296875 0.328125q0.203125 0.125 0.578125 0.125q0.265625 0 0.734375 -0.078125zm8.277039 -1.671875l1.71875 0.21875q-0.40625 1.5 -1.515625 2.34375q-1.09375 0.828125 -2.8125 0.828125q-2.15625 0 -3.421875 -1.328125q-1.265625 -1.328125 -1.265625 -3.734375q0 -2.484375 1.265625 -3.859375q1.28125 -1.375 3.328125 -1.375q1.984375 0 3.234375 1.34375q1.25 1.34375 1.25 3.796875q0 0.140625 -0.015625 0.4375l-7.34375 0q0.09375 1.625 0.921875 2.484375q0.828125 0.859375 2.0625 0.859375q0.90625 0 1.546875 -0.46875q0.65625 -0.484375 1.046875 -1.546875zm-5.484375 -2.703125l5.5 0q-0.109375 -1.234375 -0.625 -1.859375q-0.796875 -0.96875 -2.078125 -0.96875q-1.140625 0 -1.9375 0.78125q-0.78125 0.765625 -0.859375 2.046875zm9.094482 5.875l0 -9.859375l1.5 0l0 1.5q0.578125 -1.046875 1.0625 -1.375q0.484375 -0.34375 1.078125 -0.34375q0.84375 0 1.71875 0.546875l-0.578125 1.546875q-0.609375 -0.359375 -1.234375 -0.359375q-0.546875 0 -0.984375 0.328125q-0.421875 0.328125 -0.609375 0.90625q-0.28125 0.890625 -0.28125 1.953125l0 5.15625l-1.671875 0zm9.4157715 4.0q-1.375 -1.75 -2.328125 -4.078125q-0.953125 -2.34375 -0.953125 -4.84375q0 -2.21875 0.703125 -4.234375q0.84375 -2.34375 2.578125 -4.671875l1.203125 0q-1.125 1.921875 -1.484375 2.75q-0.5625 1.28125 -0.890625 2.671875q-0.40625 1.734375 -0.40625 3.484375q0 4.46875 2.78125 8.921875l-1.203125 0zm4.1189575 0l-1.1875 0q2.765625 -4.453125 2.765625 -8.921875q0 -1.734375 -0.390625 -3.453125q-0.328125 -1.390625 -0.890625 -2.671875q-0.359375 -0.84375 -1.484375 -2.78125l1.1875 0q1.75 2.328125 2.578125 4.671875q0.71875 2.015625 0.71875 4.234375q0 2.5 -0.96875 4.84375q-0.953125 2.328125 -2.328125 4.078125z" fill-rule="nonzero"></path><path fill="#000000" fill-opacity="0.0" d="m793.22833 372.03937l130.99213 0l0 40.944885l-130.99213 0z" fill-rule="nonzero"></path><path fill="#000000" d="m803.9471 398.95938l0 -1.90625l1.90625 0l0 1.90625l-1.90625 0zm11.152039 -1.21875q-0.9375 0.796875 -1.796875 1.125q-0.859375 0.3125 -1.84375 0.3125q-1.609375 0 -2.484375 -0.78125q-0.875 -0.796875 -0.875 -2.03125q0 -0.734375 0.328125 -1.328125q0.328125 -0.59375 0.859375 -0.953125q0.53125 -0.359375 1.203125 -0.546875q0.5 -0.140625 1.484375 -0.25q2.03125 -0.25 2.984375 -0.578125q0 -0.34375 0 -0.4375q0 -1.015625 -0.46875 -1.4375q-0.640625 -0.5625 -1.90625 -0.5625q-1.171875 0 -1.734375 0.40625q-0.5625 0.40625 -0.828125 1.46875l-1.640625 -0.234375q0.234375 -1.046875 0.734375 -1.6875q0.515625 -0.640625 1.46875 -0.984375q0.96875 -0.359375 2.25 -0.359375q1.265625 0 2.046875 0.296875q0.78125 0.296875 1.15625 0.75q0.375 0.453125 0.515625 1.140625q0.09375 0.421875 0.09375 1.53125l0 2.234375q0 2.328125 0.09375 2.953125q0.109375 0.609375 0.4375 1.171875l-1.75 0q-0.265625 -0.515625 -0.328125 -1.21875zm-0.140625 -3.71875q-0.90625 0.359375 -2.734375 0.625q-1.03125 0.140625 -1.453125 0.328125q-0.421875 0.1875 -0.65625 0.546875q-0.234375 0.359375 -0.234375 0.796875q0 0.671875 0.5 1.125q0.515625 0.4375 1.484375 0.4375q0.96875 0 1.71875 -0.421875q0.75 -0.4375 1.109375 -1.15625q0.265625 -0.578125 0.265625 -1.671875l0 -0.609375zm4.0788574 8.71875l0 -13.640625l1.53125 0l0 1.28125q0.53125 -0.75 1.203125 -1.125q0.6875 -0.375 1.640625 -0.375q1.265625 0 2.234375 0.65625q0.96875 0.640625 1.453125 1.828125q0.5 1.1875 0.5 2.59375q0 1.515625 -0.546875 2.734375q-0.546875 1.203125 -1.578125 1.84375q-1.03125 0.640625 -2.171875 0.640625q-0.84375 0 -1.515625 -0.34375q-0.65625 -0.359375 -1.078125 -0.890625l0 4.796875l-1.671875 0zm1.515625 -8.65625q0 1.90625 0.765625 2.8125q0.78125 0.90625 1.875 0.90625q1.109375 0 1.890625 -0.9375q0.796875 -0.9375 0.796875 -2.921875q0 -1.875 -0.78125 -2.8125q-0.765625 -0.9375 -1.84375 -0.9375q-1.0625 0 -1.890625 1.0q-0.8125 1.0 -0.8125 2.890625zm8.860107 8.65625l0 -13.640625l1.53125 0l0 1.28125q0.53125 -0.75 1.203125 -1.125q0.6875 -0.375 1.640625 -0.375q1.265625 0 2.234375 0.65625q0.96875 0.640625 1.453125 1.828125q0.5 1.1875 0.5 2.59375q0 1.515625 -0.546875 2.734375q-0.546875 1.203125 -1.578125 1.84375q-1.03125 0.640625 -2.171875 0.640625q-0.84375 0 -1.515625 -0.34375q-0.65625 -0.359375 -1.078125 -0.890625l0 4.796875l-1.671875 0zm1.515625 -8.65625q0 1.90625 0.765625 2.8125q0.78125 0.90625 1.875 0.90625q1.109375 0 1.890625 -0.9375q0.796875 -0.9375 0.796875 -2.921875q0 -1.875 -0.78125 -2.8125q-0.765625 -0.9375 -1.84375 -0.9375q-1.0625 0 -1.890625 1.0q-0.8125 1.0 -0.8125 2.890625zm15.610107 1.703125l1.71875 0.21875q-0.40625 1.5 -1.515625 2.34375q-1.09375 0.828125 -2.8125 0.828125q-2.15625 0 -3.421875 -1.328125q-1.265625 -1.328125 -1.265625 -3.734375q0 -2.484375 1.265625 -3.859375q1.28125 -1.375 3.328125 -1.375q1.984375 0 3.234375 1.34375q1.25 1.34375 1.25 3.796875q0 0.140625 -0.015625 0.4375l-7.34375 0q0.09375 1.625 0.921875 2.484375q0.828125 0.859375 2.0625 0.859375q0.90625 0 1.546875 -0.46875q0.65625 -0.484375 1.046875 -1.546875zm-5.484375 -2.703125l5.5 0q-0.109375 -1.234375 -0.625 -1.859375q-0.796875 -0.96875 -2.078125 -0.96875q-1.140625 0 -1.9375 0.78125q-0.78125 0.765625 -0.859375 2.046875zm9.110046 5.875l0 -9.859375l1.5 0l0 1.40625q1.09375 -1.625 3.140625 -1.625q0.890625 0 1.640625 0.328125q0.75 0.3125 1.109375 0.84375q0.375 0.515625 0.53125 1.21875q0.09375 0.46875 0.09375 1.625l0 6.0625l-1.671875 0l0 -6.0q0 -1.015625 -0.203125 -1.515625q-0.1875 -0.515625 -0.6875 -0.8125q-0.5 -0.296875 -1.171875 -0.296875q-1.0625 0 -1.84375 0.671875q-0.765625 0.671875 -0.765625 2.578125l0 5.375l-1.671875 0zm16.766357 0l0 -1.25q-0.9375 1.46875 -2.75 1.46875q-1.171875 0 -2.171875 -0.640625q-0.984375 -0.65625 -1.53125 -1.8125q-0.53125 -1.171875 -0.53125 -2.6875q0 -1.46875 0.484375 -2.671875q0.5 -1.203125 1.46875 -1.84375q0.984375 -0.640625 2.203125 -0.640625q0.890625 0 1.578125 0.375q0.703125 0.375 1.140625 0.984375l0 -4.875l1.65625 0l0 13.59375l-1.546875 0zm-5.28125 -4.921875q0 1.890625 0.796875 2.828125q0.8125 0.9375 1.890625 0.9375q1.09375 0 1.859375 -0.890625q0.765625 -0.890625 0.765625 -2.734375q0 -2.015625 -0.78125 -2.953125q-0.78125 -0.953125 -1.921875 -0.953125q-1.109375 0 -1.859375 0.90625q-0.75 0.90625 -0.75 2.859375zm12.453857 8.921875q-1.375 -1.75 -2.328125 -4.078125q-0.953125 -2.34375 -0.953125 -4.84375q0 -2.21875 0.703125 -4.234375q0.84375 -2.34375 2.578125 -4.671875l1.203125 0q-1.125 1.921875 -1.484375 2.75q-0.5625 1.28125 -0.890625 2.671875q-0.40625 1.734375 -0.40625 3.484375q0 4.46875 2.78125 8.921875l-1.203125 0zm4.3376465 -15.3125l0 1.9375l-1.796875 0l0 -1.53125q0 -1.25 0.296875 -1.796875q0.390625 -0.75 1.234375 -1.125l0.40625 0.640625q-0.5 0.21875 -0.75 0.640625q-0.234375 0.421875 -0.265625 1.234375l0.875 0zm2.875 0l0 1.9375l-1.796875 0l0 -1.53125q0 -1.25 0.296875 -1.796875q0.390625 -0.75 1.234375 -1.125l0.40625 0.640625q-0.5 0.21875 -0.75 0.640625q-0.234375 0.421875 -0.265625 1.234375l0.875 0zm2.0252075 15.09375l0 -13.640625l1.53125 0l0 1.28125q0.53125 -0.75 1.203125 -1.125q0.6875 -0.375 1.640625 -0.375q1.265625 0 2.234375 0.65625q0.96875 0.640625 1.453125 1.828125q0.5 1.1875 0.5 2.59375q0 1.515625 -0.546875 2.734375q-0.546875 1.203125 -1.578125 1.84375q-1.03125 0.640625 -2.171875 0.640625q-0.84375 0 -1.515625 -0.34375q-0.65625 -0.359375 -1.078125 -0.890625l0 4.796875l-1.671875 0zm1.515625 -8.65625q0 1.90625 0.765625 2.8125q0.78125 0.90625 1.875 0.90625q1.109375 0 1.890625 -0.9375q0.796875 -0.9375 0.796875 -2.921875q0 -1.875 -0.78125 -2.8125q-0.765625 -0.9375 -1.84375 -0.9375q-1.0625 0 -1.890625 1.0q-0.8125 1.0 -0.8125 2.890625zm8.422607 -6.921875l0 -1.9375l1.78125 0l0 1.53125q0 1.234375 -0.28125 1.78125q-0.40625 0.75 -1.25 1.140625l-0.40625 -0.671875q0.5 -0.203125 0.75 -0.640625q0.25 -0.4375 0.265625 -1.203125l-0.859375 0zm2.875 0l0 -1.9375l1.78125 0l0 1.53125q0 1.234375 -0.28125 1.78125q-0.40625 0.75 -1.25 1.140625l-0.40625 -0.671875q0.5 -0.203125 0.75 -0.640625q0.25 -0.4375 0.28125 -1.203125l-0.875 0zm4.8688965 15.796875l-1.1875 0q2.765625 -4.453125 2.765625 -8.921875q0 -1.734375 -0.390625 -3.453125q-0.328125 -1.390625 -0.890625 -2.671875q-0.359375 -0.84375 -1.484375 -2.78125l1.1875 0q1.75 2.328125 2.578125 4.671875q0.71875 2.015625 0.71875 4.234375q0 2.5 -0.96875 4.84375q-0.953125 2.328125 -2.328125 4.078125z" fill-rule="nonzero"></path><path fill="#ff7f0e" d="m35.779526 110.244095l119.433075 0l0 123.62204l-119.433075 0z" fill-rule="nonzero"></path><path stroke="#000000" stroke-width="2.0" stroke-linejoin="round" stroke-linecap="butt" d="m35.779526 110.244095l119.433075 0l0 123.62204l-119.433075 0z" fill-rule="nonzero"></path><path fill="#000000" d="m51.009705 173.02199l0 -1.546875l9.0 -3.8125l0 1.65625l-7.140625 2.9375l7.140625 2.96875l0 1.65625l-9.0 -3.859375zm11.0980835 9.734375l0 -13.640625l1.53125 0l0 1.28125q0.53125 -0.75 1.203125 -1.125q0.6875 -0.375 1.640625 -0.375q1.265625 0 2.234375 0.65625q0.96875 0.640625 1.453125 1.828125q0.5 1.1875 0.5 2.59375q0 1.515625 -0.546875 2.734375q-0.546875 1.203125 -1.578125 1.84375q-1.03125 0.640625 -2.171875 0.640625q-0.84375 0 -1.515625 -0.34375q-0.65625 -0.359375 -1.078125 -0.890625l0 4.796875l-1.671875 0zm1.515625 -8.65625q0 1.90625 0.765625 2.8125q0.78125 0.90625 1.875 0.90625q1.109375 0 1.890625 -0.9375q0.796875 -0.9375 0.796875 -2.921875q0 -1.875 -0.78125 -2.8125q-0.765625 -0.9375 -1.84375 -0.9375q-1.0625 0 -1.890625 1.0q-0.8125 1.0 -0.8125 2.890625zm17.656967 -1.078125l-9.0 3.859375l0 -1.65625l7.125 -2.96875l-7.125 -2.9375l0 -1.65625l9.0 3.8125l0 1.546875zm7.9262085 5.953125l-1.671875 0l0 -10.640625q-0.59375 0.578125 -1.578125 1.15625q-0.984375 0.5625 -1.765625 0.859375l0 -1.625q1.40625 -0.65625 2.453125 -1.59375q1.046875 -0.9375 1.484375 -1.8125l1.078125 0l0 13.65625zm12.750717 -10.265625l-1.65625 0.125q-0.21875 -0.984375 -0.640625 -1.421875q-0.671875 -0.71875 -1.65625 -0.71875q-0.8125 0 -1.40625 0.4375q-0.796875 0.578125 -1.25 1.6875q-0.453125 1.09375 -0.46875 3.140625q0.609375 -0.921875 1.46875 -1.359375q0.875 -0.453125 1.828125 -0.453125q1.671875 0 2.84375 1.234375q1.171875 1.234375 1.171875 3.171875q0 1.28125 -0.546875 2.390625q-0.546875 1.09375 -1.515625 1.6875q-0.96875 0.578125 -2.1875 0.578125q-2.09375 0 -3.40625 -1.53125q-1.3125 -1.546875 -1.3125 -5.0625q0 -3.953125 1.453125 -5.734375q1.265625 -1.5625 3.421875 -1.5625q1.609375 0 2.625 0.90625q1.03125 0.890625 1.234375 2.484375zm-6.8125 5.859375q0 0.859375 0.359375 1.65625q0.375 0.78125 1.03125 1.203125q0.65625 0.40625 1.375 0.40625q1.0625 0 1.8125 -0.84375q0.765625 -0.859375 0.765625 -2.328125q0 -1.40625 -0.75 -2.21875q-0.75 -0.8125 -1.890625 -0.8125q-1.125 0 -1.921875 0.8125q-0.78125 0.8125 -0.78125 2.125zm8.781967 -1.546875l0 -1.546875l9.0 -3.8125l0 1.65625l-7.140625 2.9375l7.140625 2.96875l0 1.65625l-9.0 -3.859375zm9.8480835 6.1875l3.9375 -14.0625l1.34375 0l-3.9375 14.0625l-1.34375 0zm6.433304 3.546875l0 -13.640625l1.53125 0l0 1.28125q0.53125 -0.75 1.203125 -1.125q0.6875 -0.375 1.640625 -0.375q1.265625 0 2.234375 0.65625q0.96875 0.640625 1.453125 1.828125q0.5 1.1875 0.5 2.59375q0 1.515625 -0.546875 2.734375q-0.546875 1.203125 -1.578125 1.84375q-1.03125 0.640625 -2.171875 0.640625q-0.84375 0 -1.515625 -0.34375q-0.65625 -0.359375 -1.078125 -0.890625l0 4.796875l-1.671875 0zm1.515625 -8.65625q0 1.90625 0.765625 2.8125q0.78125 0.90625 1.875 0.90625q1.109375 0 1.890625 -0.9375q0.796875 -0.9375 0.796875 -2.921875q0 -1.875 -0.78125 -2.8125q-0.765625 -0.9375 -1.84375 -0.9375q-1.0625 0 -1.890625 1.0q-0.8125 1.0 -0.8125 2.890625zm17.656967 -1.078125l-9.0 3.859375l0 -1.65625l7.125 -2.96875l-7.125 -2.9375l0 -1.65625l9.0 3.8125l0 1.546875z" fill-rule="nonzero"></path><path fill="#ff7f0e" d="m233.18504 110.244095l119.43306 0l0 123.62204l-119.43306 0z" fill-rule="nonzero"></path><path stroke="#000000" stroke-width="2.0" stroke-linejoin="round" stroke-linecap="butt" d="m233.18504 110.244095l119.43306 0l0 123.62204l-119.43306 0z" fill-rule="nonzero"></path><path fill="#000000" d="m248.41522 173.02199l0 -1.546875l9.0 -3.8125l0 1.65625l-7.140625 2.9375l7.140625 2.96875l0 1.65625l-9.0 -3.859375zm11.0980835 9.734375l0 -13.640625l1.53125 0l0 1.28125q0.53125 -0.75 1.203125 -1.125q0.6875 -0.375 1.640625 -0.375q1.265625 0 2.234375 0.65625q0.96875 0.640625 1.453125 1.828125q0.5 1.1875 0.5 2.59375q0 1.515625 -0.546875 2.734375q-0.546875 1.203125 -1.578125 1.84375q-1.03125 0.640625 -2.171875 0.640625q-0.84375 0 -1.515625 -0.34375q-0.65625 -0.359375 -1.078125 -0.890625l0 4.796875l-1.671875 0zm1.515625 -8.65625q0 1.90625 0.765625 2.8125q0.78125 0.90625 1.875 0.90625q1.109375 0 1.890625 -0.9375q0.796875 -0.9375 0.796875 -2.921875q0 -1.875 -0.78125 -2.8125q-0.765625 -0.9375 -1.84375 -0.9375q-1.0625 0 -1.890625 1.0q-0.8125 1.0 -0.8125 2.890625zm17.656952 -1.078125l-9.0 3.859375l0 -1.65625l7.125 -2.96875l-7.125 -2.9375l0 -1.65625l9.0 3.8125l0 1.546875zm10.4105835 4.34375l0 1.609375l-8.984375 0q-0.015625 -0.609375 0.1875 -1.15625q0.34375 -0.921875 1.09375 -1.8125q0.765625 -0.890625 2.1875 -2.0625q2.21875 -1.8125 3.0 -2.875q0.78125 -1.0625 0.78125 -2.015625q0 -0.984375 -0.71875 -1.671875q-0.703125 -0.6875 -1.84375 -0.6875q-1.203125 0 -1.9375 0.734375q-0.71875 0.71875 -0.71875 2.0l-1.71875 -0.171875q0.171875 -1.921875 1.328125 -2.921875q1.15625 -1.015625 3.09375 -1.015625q1.953125 0 3.09375 1.09375q1.140625 1.078125 1.140625 2.6875q0 0.8125 -0.34375 1.609375q-0.328125 0.78125 -1.109375 1.65625q-0.765625 0.859375 -2.5625 2.390625q-1.5 1.265625 -1.9375 1.71875q-0.421875 0.4375 -0.703125 0.890625l6.671875 0zm1.6101074 -1.984375l1.671875 -0.21875q0.28125 1.421875 0.96875 2.046875q0.703125 0.625 1.6875 0.625q1.1875 0 2.0 -0.8125q0.8125 -0.828125 0.8125 -2.03125q0 -1.140625 -0.765625 -1.890625q-0.75 -0.75 -1.90625 -0.75q-0.46875 0 -1.171875 0.1875l0.1875 -1.46875q0.15625 0.015625 0.265625 0.015625q1.0625 0 1.90625 -0.546875q0.859375 -0.5625 0.859375 -1.71875q0 -0.921875 -0.625 -1.515625q-0.609375 -0.609375 -1.59375 -0.609375q-0.96875 0 -1.625 0.609375q-0.640625 0.609375 -0.828125 1.84375l-1.671875 -0.296875q0.296875 -1.6875 1.375 -2.609375q1.09375 -0.921875 2.71875 -0.921875q1.109375 0 2.046875 0.484375q0.9375 0.46875 1.421875 1.296875q0.5 0.828125 0.5 1.75q0 0.890625 -0.46875 1.609375q-0.46875 0.71875 -1.40625 1.15625q1.21875 0.265625 1.875 1.15625q0.671875 0.875 0.671875 2.1875q0 1.78125 -1.296875 3.015625q-1.296875 1.234375 -3.28125 1.234375q-1.796875 0 -2.984375 -1.0625q-1.171875 -1.0625 -1.34375 -2.765625zm10.625702 -2.359375l0 -1.546875l9.0 -3.8125l0 1.65625l-7.140625 2.9375l7.140625 2.96875l0 1.65625l-9.0 -3.859375zm9.8480835 6.1875l3.9375 -14.0625l1.34375 0l-3.9375 14.0625l-1.34375 0zm6.433319 3.546875l0 -13.640625l1.53125 0l0 1.28125q0.53125 -0.75 1.203125 -1.125q0.6875 -0.375 1.640625 -0.375q1.265625 0 2.234375 0.65625q0.96875 0.640625 1.453125 1.828125q0.5 1.1875 0.5 2.59375q0 1.515625 -0.546875 2.734375q-0.546875 1.203125 -1.578125 1.84375q-1.03125 0.640625 -2.171875 0.640625q-0.84375 0 -1.515625 -0.34375q-0.65625 -0.359375 -1.078125 -0.890625l0 4.796875l-1.671875 0zm1.515625 -8.65625q0 1.90625 0.765625 2.8125q0.78125 0.90625 1.875 0.90625q1.109375 0 1.890625 -0.9375q0.796875 -0.9375 0.796875 -2.921875q0 -1.875 -0.78125 -2.8125q-0.765625 -0.9375 -1.84375 -0.9375q-1.0625 0 -1.890625 1.0q-0.8125 1.0 -0.8125 2.890625zm17.656952 -1.078125l-9.0 3.859375l0 -1.65625l7.125 -2.96875l-7.125 -2.9375l0 -1.65625l9.0 3.8125l0 1.546875z" fill-rule="nonzero"></path><path fill="#ff7f0e" d="m420.42258 116.01837l119.433075 0l0 123.622055l-119.433075 0z" fill-rule="nonzero"></path><path stroke="#000000" stroke-width="2.0" stroke-linejoin="round" stroke-linecap="butt" d="m420.42258 116.01837l119.433075 0l0 123.622055l-119.433075 0z" fill-rule="nonzero"></path><path fill="#000000" d="m435.65274 178.79626l0 -1.546875l9.0 -3.8125l0 1.65625l-7.140625 2.9375l7.140625 2.96875l0 1.65625l-9.0 -3.859375zm11.0980835 9.734375l0 -13.640625l1.53125 0l0 1.28125q0.53125 -0.75 1.203125 -1.125q0.6875 -0.375 1.640625 -0.375q1.265625 0 2.234375 0.65625q0.96875 0.640625 1.453125 1.828125q0.5 1.1875 0.5 2.59375q0 1.515625 -0.546875 2.734375q-0.546875 1.203125 -1.578125 1.84375q-1.03125 0.640625 -2.171875 0.640625q-0.84375 0 -1.515625 -0.34375q-0.65625 -0.359375 -1.078125 -0.890625l0 4.796875l-1.671875 0zm1.515625 -8.65625q0 1.90625 0.765625 2.8125q0.78125 0.90625 1.875 0.90625q1.109375 0 1.890625 -0.9375q0.796875 -0.9375 0.796875 -2.921875q0 -1.875 -0.78125 -2.8125q-0.765625 -0.9375 -1.84375 -0.9375q-1.0625 0 -1.890625 1.0q-0.8125 1.0 -0.8125 2.890625zm17.656982 -1.078125l-9.0 3.859375l0 -1.65625l7.125 -2.96875l-7.125 -2.9375l0 -1.65625l9.0 3.8125l0 1.546875zm6.9887085 5.953125l0 -3.25l-5.90625 0l0 -1.53125l6.21875 -8.8125l1.359375 0l0 8.8125l1.84375 0l0 1.53125l-1.84375 0l0 3.25l-1.671875 0zm0 -4.78125l0 -6.140625l-4.25 6.140625l4.25 0zm13.797577 3.171875l0 1.609375l-8.984375 0q-0.015625 -0.609375 0.1875 -1.15625q0.34375 -0.921875 1.09375 -1.8125q0.765625 -0.890625 2.1875 -2.0625q2.21875 -1.8125 3.0 -2.875q0.78125 -1.0625 0.78125 -2.015625q0 -0.984375 -0.71875 -1.671875q-0.703125 -0.6875 -1.84375 -0.6875q-1.203125 0 -1.9375 0.734375q-0.71875 0.71875 -0.71875 2.0l-1.71875 -0.171875q0.171875 -1.921875 1.328125 -2.921875q1.15625 -1.015625 3.09375 -1.015625q1.953125 0 3.09375 1.09375q1.140625 1.078125 1.140625 2.6875q0 0.8125 -0.34375 1.609375q-0.328125 0.78125 -1.109375 1.65625q-0.765625 0.859375 -2.5625 2.390625q-1.5 1.265625 -1.9375 1.71875q-0.421875 0.4375 -0.703125 0.890625l6.671875 0zm1.8601074 -4.34375l0 -1.546875l9.0 -3.8125l0 1.65625l-7.140625 2.9375l7.140625 2.96875l0 1.65625l-9.0 -3.859375zm9.8480835 6.1875l3.9375 -14.0625l1.34375 0l-3.9375 14.0625l-1.34375 0zm6.4332886 3.546875l0 -13.640625l1.53125 0l0 1.28125q0.53125 -0.75 1.203125 -1.125q0.6875 -0.375 1.640625 -0.375q1.265625 0 2.234375 0.65625q0.96875 0.640625 1.453125 1.828125q0.5 1.1875 0.5 2.59375q0 1.515625 -0.546875 2.734375q-0.546875 1.203125 -1.578125 1.84375q-1.03125 0.640625 -2.171875 0.640625q-0.84375 0 -1.515625 -0.34375q-0.65625 -0.359375 -1.078125 -0.890625l0 4.796875l-1.671875 0zm1.515625 -8.65625q0 1.90625 0.765625 2.8125q0.78125 0.90625 1.875 0.90625q1.109375 0 1.890625 -0.9375q0.796875 -0.9375 0.796875 -2.921875q0 -1.875 -0.78125 -2.8125q-0.765625 -0.9375 -1.84375 -0.9375q-1.0625 0 -1.890625 1.0q-0.8125 1.0 -0.8125 2.890625zm17.656982 -1.078125l-9.0 3.859375l0 -1.65625l7.125 -2.96875l-7.125 -2.9375l0 -1.65625l9.0 3.8125l0 1.546875z" fill-rule="nonzero"></path><path fill="#000000" fill-opacity="0.0" d="m614.69556 116.01837l119.433044 0l0 123.622055l-119.433044 0z" fill-rule="nonzero"></path><path stroke="#000000" stroke-width="2.0" stroke-linejoin="round" stroke-linecap="butt" stroke-dasharray="8.0,6.0" d="m614.69556 116.01837l119.433044 0l0 123.622055l-119.433044 0z" fill-rule="nonzero"></path><path fill="#000000" d="m624.94556 188.53064l0 -13.640625l1.53125 0l0 1.28125q0.53125 -0.75 1.203125 -1.125q0.6875 -0.375 1.640625 -0.375q1.265625 0 2.234375 0.65625q0.96875 0.640625 1.453125 1.828125q0.5 1.1875 0.5 2.59375q0 1.515625 -0.546875 2.734375q-0.546875 1.203125 -1.578125 1.84375q-1.03125 0.640625 -2.171875 0.640625q-0.84375 0 -1.515625 -0.34375q-0.65625 -0.359375 -1.078125 -0.890625l0 4.796875l-1.671875 0zm1.515625 -8.65625q0 1.90625 0.765625 2.8125q0.78125 0.90625 1.875 0.90625q1.109375 0 1.890625 -0.9375q0.796875 -0.9375 0.796875 -2.921875q0 -1.875 -0.78125 -2.8125q-0.765625 -0.9375 -1.84375 -0.9375q-1.0625 0 -1.890625 1.0q-0.8125 1.0 -0.8125 2.890625zm8.828796 4.875l0 -13.59375l1.671875 0l0 13.59375l-1.671875 0zm10.613586 -1.21875q-0.9375 0.796875 -1.796875 1.125q-0.859375 0.3125 -1.84375 0.3125q-1.609375 0 -2.484375 -0.78125q-0.875 -0.796875 -0.875 -2.03125q0 -0.734375 0.328125 -1.328125q0.328125 -0.59375 0.859375 -0.953125q0.53125 -0.359375 1.203125 -0.546875q0.5 -0.140625 1.484375 -0.25q2.03125 -0.25 2.984375 -0.578125q0 -0.34375 0 -0.4375q0 -1.015625 -0.46875 -1.4375q-0.640625 -0.5625 -1.90625 -0.5625q-1.171875 0 -1.734375 0.40625q-0.5625 0.40625 -0.828125 1.46875l-1.640625 -0.234375q0.234375 -1.046875 0.734375 -1.6875q0.515625 -0.640625 1.46875 -0.984375q0.96875 -0.359375 2.25 -0.359375q1.265625 0 2.046875 0.296875q0.78125 0.296875 1.15625 0.75q0.375 0.453125 0.515625 1.140625q0.09375 0.421875 0.09375 1.53125l0 2.234375q0 2.328125 0.09375 2.953125q0.109375 0.609375 0.4375 1.171875l-1.75 0q-0.265625 -0.515625 -0.328125 -1.21875zm-0.140625 -3.71875q-0.90625 0.359375 -2.734375 0.625q-1.03125 0.140625 -1.453125 0.328125q-0.421875 0.1875 -0.65625 0.546875q-0.234375 0.359375 -0.234375 0.796875q0 0.671875 0.5 1.125q0.515625 0.4375 1.484375 0.4375q0.96875 0 1.71875 -0.421875q0.75 -0.4375 1.109375 -1.15625q0.265625 -0.578125 0.265625 -1.671875l0 -0.609375zm10.516357 1.328125l1.640625 0.21875q-0.265625 1.6875 -1.375 2.65625q-1.109375 0.953125 -2.734375 0.953125q-2.015625 0 -3.25 -1.3125q-1.21875 -1.328125 -1.21875 -3.796875q0 -1.59375 0.515625 -2.78125q0.53125 -1.203125 1.609375 -1.796875q1.09375 -0.609375 2.359375 -0.609375q1.609375 0 2.625 0.8125q1.015625 0.8125 1.3125 2.3125l-1.625 0.25q-0.234375 -1.0 -0.828125 -1.5q-0.59375 -0.5 -1.421875 -0.5q-1.265625 0 -2.0625 0.90625q-0.78125 0.90625 -0.78125 2.859375q0 1.984375 0.765625 2.890625q0.765625 0.890625 1.984375 0.890625q0.984375 0 1.640625 -0.59375q0.65625 -0.609375 0.84375 -1.859375zm9.640625 0.4375l1.71875 0.21875q-0.40625 1.5 -1.515625 2.34375q-1.09375 0.828125 -2.8125 0.828125q-2.15625 0 -3.421875 -1.328125q-1.265625 -1.328125 -1.265625 -3.734375q0 -2.484375 1.265625 -3.859375q1.28125 -1.375 3.328125 -1.375q1.984375 0 3.234375 1.34375q1.25 1.34375 1.25 3.796875q0 0.140625 -0.015625 0.4375l-7.34375 0q0.09375 1.625 0.921875 2.484375q0.828125 0.859375 2.0625 0.859375q0.90625 0 1.546875 -0.46875q0.65625 -0.484375 1.046875 -1.546875zm-5.484375 -2.703125l5.5 0q-0.109375 -1.234375 -0.625 -1.859375q-0.796875 -0.96875 -2.078125 -0.96875q-1.140625 0 -1.9375 0.78125q-0.78125 0.765625 -0.859375 2.046875zm9.110107 5.875l0 -13.59375l1.671875 0l0 4.875q1.171875 -1.359375 2.953125 -1.359375q1.09375 0 1.890625 0.4375q0.8125 0.421875 1.15625 1.1875q0.359375 0.765625 0.359375 2.203125l0 6.25l-1.671875 0l0 -6.25q0 -1.25 -0.546875 -1.8125q-0.546875 -0.578125 -1.53125 -0.578125q-0.75 0 -1.40625 0.390625q-0.640625 0.375 -0.921875 1.046875q-0.28125 0.65625 -0.28125 1.8125l0 5.390625l-1.671875 0zm9.750671 -4.921875q0 -2.734375 1.53125 -4.0625q1.265625 -1.09375 3.09375 -1.09375q2.03125 0 3.3125 1.34375q1.296875 1.328125 1.296875 3.671875q0 1.90625 -0.578125 3.0q-0.5625 1.078125 -1.65625 1.6875q-1.078125 0.59375 -2.375 0.59375q-2.0625 0 -3.34375 -1.328125q-1.28125 -1.328125 -1.28125 -3.8125zm1.71875 0q0 1.890625 0.828125 2.828125q0.828125 0.9375 2.078125 0.9375q1.25 0 2.0625 -0.9375q0.828125 -0.953125 0.828125 -2.890625q0 -1.828125 -0.828125 -2.765625q-0.828125 -0.9375 -2.0625 -0.9375q-1.25 0 -2.078125 0.9375q-0.828125 0.9375 -0.828125 2.828125zm9.250732 4.921875l0 -13.59375l1.671875 0l0 13.59375l-1.671875 0zm10.566711 0l0 -1.25q-0.9375 1.46875 -2.75 1.46875q-1.171875 0 -2.171875 -0.640625q-0.984375 -0.65625 -1.53125 -1.8125q-0.53125 -1.171875 -0.53125 -2.6875q0 -1.46875 0.484375 -2.671875q0.5 -1.203125 1.46875 -1.84375q0.984375 -0.640625 2.203125 -0.640625q0.890625 0 1.578125 0.375q0.703125 0.375 1.140625 0.984375l0 -4.875l1.65625 0l0 13.59375l-1.546875 0zm-5.28125 -4.921875q0 1.890625 0.796875 2.828125q0.8125 0.9375 1.890625 0.9375q1.09375 0 1.859375 -0.890625q0.765625 -0.890625 0.765625 -2.734375q0 -2.015625 -0.78125 -2.953125q-0.78125 -0.953125 -1.921875 -0.953125q-1.109375 0 -1.859375 0.90625q-0.75 0.90625 -0.75 2.859375zm16.016357 1.75l1.71875 0.21875q-0.40625 1.5 -1.515625 2.34375q-1.09375 0.828125 -2.8125 0.828125q-2.15625 0 -3.421875 -1.328125q-1.265625 -1.328125 -1.265625 -3.734375q0 -2.484375 1.265625 -3.859375q1.28125 -1.375 3.328125 -1.375q1.984375 0 3.234375 1.34375q1.25 1.34375 1.25 3.796875q0 0.140625 -0.015625 0.4375l-7.34375 0q0.09375 1.625 0.921875 2.484375q0.828125 0.859375 2.0625 0.859375q0.90625 0 1.546875 -0.46875q0.65625 -0.484375 1.046875 -1.546875zm-5.484375 -2.703125l5.5 0q-0.109375 -1.234375 -0.625 -1.859375q-0.796875 -0.96875 -2.078125 -0.96875q-1.140625 0 -1.9375 0.78125q-0.78125 0.765625 -0.859375 2.046875zm9.094421 5.875l0 -9.859375l1.5 0l0 1.5q0.578125 -1.046875 1.0625 -1.375q0.484375 -0.34375 1.078125 -0.34375q0.84375 0 1.71875 0.546875l-0.578125 1.546875q-0.609375 -0.359375 -1.234375 -0.359375q-0.546875 0 -0.984375 0.328125q-0.421875 0.328125 -0.609375 0.90625q-0.28125 0.890625 -0.28125 1.953125l0 5.15625l-1.671875 0z" fill-rule="nonzero"></path><path fill="#2ca02c" d="m636.1916 61.317585l0 0c0 -11.306618 17.111877 -20.472439 38.22046 -20.472439l0 0c21.108582 0 38.22052 9.165821 38.22052 20.472439l0 0c0 11.306614 -17.111938 20.472439 -38.22052 20.472439l0 0c-21.108582 0 -38.22046 -9.165825 -38.22046 -20.472439z" fill-rule="nonzero"></path><path stroke="#000000" stroke-width="1.0" stroke-linejoin="round" stroke-linecap="butt" d="m636.1916 61.317585l0 0c0 -11.306618 17.111877 -20.472439 38.22046 -20.472439l0 0c21.108582 0 38.22052 9.165821 38.22052 20.472439l0 0c0 11.306614 -17.111938 20.472439 -38.22052 20.472439l0 0c-21.108582 0 -38.22046 -9.165825 -38.22046 -20.472439z" fill-rule="nonzero"></path><path fill="#ffffff" d="m666.0518 66.39758l-1.328125 0l0 -8.406246q-0.46875 0.453125 -1.25 0.921875q-0.765625 0.453125 -1.375 0.671875l0 -1.28125q1.09375 -0.515625 1.921875 -1.25q0.828125 -0.734375 1.171875 -1.4375l0.859375 0l0 10.781246zm3.182373 -5.296871q0 -1.90625 0.390625 -3.0625q0.390625 -1.15625 1.15625 -1.78125q0.78125 -0.640625 1.953125 -0.640625q0.859375 0 1.515625 0.359375q0.65625 0.34375 1.078125 1.0q0.421875 0.640625 0.65625 1.59375q0.25 0.9375 0.25 2.53125q0 1.890625 -0.390625 3.0624962q-0.390625 1.15625 -1.171875 1.796875q-0.765625 0.625 -1.9375 0.625q-1.546875 0 -2.4375 -1.125q-1.0625 -1.328125 -1.0625 -4.359371zm1.359375 0q0 2.640625 0.609375 3.5156212q0.625 0.875 1.53125 0.875q0.90625 0 1.515625 -0.875q0.625 -0.8749962 0.625 -3.5156212q0 -2.65625 -0.625 -3.515625q-0.609375 -0.875 -1.53125 -0.875q-0.90625 0 -1.453125 0.765625q-0.671875 0.984375 -0.671875 3.625zm8.822998 -0.53125q-0.828125 -0.296875 -1.21875 -0.84375q-0.390625 -0.5625 -0.390625 -1.34375q0 -1.171875 0.828125 -1.96875q0.84375 -0.796875 2.25 -0.796875q1.40625 0 2.265625 0.828125q0.859375 0.8125 0.859375 1.984375q0 0.734375 -0.40625 1.296875q-0.390625 0.546875 -1.1875 0.84375q1.0 0.328125 1.515625 1.046875q0.515625 0.71875 0.515625 1.71875q0 1.3749962 -0.984375 2.3124962q-0.96875 0.9375 -2.5625 0.9375q-1.578125 0 -2.5625 -0.9375q-0.96875 -0.953125 -0.96875 -2.3593712q0 -1.046875 0.53125 -1.75q0.53125 -0.703125 1.515625 -0.96875zm-0.265625 -2.234375q0 0.765625 0.484375 1.25q0.5 0.484375 1.28125 0.484375q0.765625 0 1.25 -0.46875q0.484375 -0.484375 0.484375 -1.1875q0 -0.71875 -0.5 -1.21875q-0.5 -0.5 -1.25 -0.5q-0.75 0 -1.25 0.484375q-0.5 0.484375 -0.5 1.15625zm-0.421875 4.96875q0 0.5625 0.265625 1.0937462q0.265625 0.515625 0.78125 0.8125q0.53125 0.28125 1.140625 0.28125q0.953125 0 1.5625 -0.59375q0.609375 -0.609375 0.609375 -1.5468712q0 -0.953125 -0.640625 -1.578125q-0.625 -0.625 -1.578125 -0.625q-0.921875 0 -1.53125 0.625q-0.609375 0.609375 -0.609375 1.53125z" fill-rule="nonzero"></path><path fill="#000000" fill-opacity="0.0" d="m636.1916 9.947507l76.44098 0l0 30.89764l-76.44098 0z" fill-rule="nonzero"></path><path fill="#000000" d="m646.05096 31.747505l0 -6.734375l1.03125 0l0 0.953125q0.734375 -1.109375 2.140625 -1.109375q0.609375 0 1.109375 0.21875q0.515625 0.21875 0.765625 0.578125q0.265625 0.34375 0.359375 0.84375q0.0625 0.3125 0.0625 1.109375l0 4.140625l-1.140625 0l0 -4.09375q0 -0.703125 -0.140625 -1.046875q-0.125 -0.34375 -0.46875 -0.546875q-0.328125 -0.21875 -0.78125 -0.21875q-0.734375 0 -1.265625 0.46875q-0.53125 0.453125 -0.53125 1.75l0 3.6875l-1.140625 0zm12.021851 -2.171875l1.1875 0.140625q-0.28125 1.046875 -1.046875 1.625q-0.75 0.5625 -1.921875 0.5625q-1.484375 0 -2.359375 -0.90625q-0.859375 -0.921875 -0.859375 -2.5625q0 -1.703125 0.875 -2.640625q0.890625 -0.9375 2.28125 -0.9375q1.359375 0 2.203125 0.921875q0.859375 0.921875 0.859375 2.578125q0 0.109375 0 0.3125l-5.03125 0q0.0625 1.109375 0.625 1.703125q0.5625 0.59375 1.40625 0.59375q0.640625 0 1.078125 -0.328125q0.453125 -0.34375 0.703125 -1.0625zm-3.75 -1.84375l3.765625 0q-0.078125 -0.859375 -0.4375 -1.28125q-0.546875 -0.65625 -1.40625 -0.65625q-0.796875 0 -1.328125 0.53125q-0.53125 0.515625 -0.59375 1.40625zm7.7874756 4.015625l-2.0625 -6.734375l1.1875 0l1.078125 3.890625l0.390625 1.4375q0.03125 -0.109375 0.359375 -1.390625l1.0625 -3.9375l1.171875 0l1.015625 3.90625l0.34375 1.28125l0.375 -1.296875l1.15625 -3.890625l1.109375 0l-2.109375 6.734375l-1.171875 0l-1.078125 -4.03125l-0.265625 -1.15625l-1.359375 5.1875l-1.203125 0zm16.46875 0l0 -0.84375q-0.640625 1.0 -1.890625 1.0q-0.796875 0 -1.484375 -0.4375q-0.671875 -0.453125 -1.046875 -1.25q-0.375 -0.796875 -0.375 -1.828125q0 -1.015625 0.34375 -1.828125q0.34375 -0.828125 1.015625 -1.265625q0.671875 -0.4375 1.5 -0.4375q0.609375 0 1.078125 0.265625q0.484375 0.25 0.78125 0.65625l0 -3.34375l1.140625 0l0 9.3125l-1.0625 0zm-3.609375 -3.359375q0 1.296875 0.53125 1.9375q0.546875 0.640625 1.296875 0.640625q0.75 0 1.265625 -0.609375q0.53125 -0.625 0.53125 -1.875q0 -1.390625 -0.53125 -2.03125q-0.53125 -0.65625 -1.3125 -0.65625q-0.765625 0 -1.28125 0.625q-0.5 0.625 -0.5 1.96875zm11.037476 2.53125q-0.625 0.53125 -1.21875 0.765625q-0.578125 0.21875 -1.25 0.21875q-1.125 0 -1.71875 -0.546875q-0.59375 -0.546875 -0.59375 -1.390625q0 -0.484375 0.21875 -0.890625q0.234375 -0.421875 0.59375 -0.671875q0.375 -0.25 0.828125 -0.375q0.328125 -0.078125 1.015625 -0.171875q1.375 -0.15625 2.03125 -0.390625q0.015625 -0.234375 0.015625 -0.296875q0 -0.703125 -0.328125 -0.984375q-0.4375 -0.390625 -1.296875 -0.390625q-0.8125 0 -1.203125 0.28125q-0.375 0.28125 -0.5625 1.0l-1.109375 -0.140625q0.140625 -0.71875 0.484375 -1.15625q0.359375 -0.453125 1.015625 -0.6875q0.671875 -0.234375 1.53125 -0.234375q0.875 0 1.40625 0.203125q0.546875 0.203125 0.796875 0.515625q0.25 0.296875 0.359375 0.765625q0.046875 0.296875 0.046875 1.0625l0 1.515625q0 1.59375 0.078125 2.015625q0.078125 0.421875 0.28125 0.8125l-1.1875 0q-0.171875 -0.359375 -0.234375 -0.828125zm-0.09375 -2.5625q-0.625 0.265625 -1.859375 0.4375q-0.703125 0.109375 -1.0 0.234375q-0.296875 0.125 -0.453125 0.375q-0.15625 0.234375 -0.15625 0.53125q0 0.453125 0.34375 0.765625q0.34375 0.296875 1.015625 0.296875q0.65625 0 1.171875 -0.28125q0.515625 -0.296875 0.765625 -0.796875q0.171875 -0.375 0.171875 -1.140625l0 -0.421875zm5.6156006 2.375l0.15625 1.0q-0.484375 0.109375 -0.859375 0.109375q-0.625 0 -0.96875 -0.203125q-0.34375 -0.203125 -0.484375 -0.515625q-0.140625 -0.328125 -0.140625 -1.34375l0 -3.890625l-0.828125 0l0 -0.875l0.828125 0l0 -1.671875l1.140625 -0.6875l0 2.359375l1.15625 0l0 0.875l-1.15625 0l0 3.953125q0 0.484375 0.0625 0.625q0.0625 0.140625 0.1875 0.21875q0.140625 0.078125 0.390625 0.078125q0.203125 0 0.515625 -0.03125zm5.593628 0.1875q-0.625 0.53125 -1.21875 0.765625q-0.578125 0.21875 -1.25 0.21875q-1.125 0 -1.71875 -0.546875q-0.59375 -0.546875 -0.59375 -1.390625q0 -0.484375 0.21875 -0.890625q0.234375 -0.421875 0.59375 -0.671875q0.375 -0.25 0.828125 -0.375q0.328125 -0.078125 1.015625 -0.171875q1.375 -0.15625 2.03125 -0.390625q0.015625 -0.234375 0.015625 -0.296875q0 -0.703125 -0.328125 -0.984375q-0.4375 -0.390625 -1.296875 -0.390625q-0.8125 0 -1.203125 0.28125q-0.375 0.28125 -0.5625 1.0l-1.109375 -0.140625q0.140625 -0.71875 0.484375 -1.15625q0.359375 -0.453125 1.015625 -0.6875q0.671875 -0.234375 1.53125 -0.234375q0.875 0 1.40625 0.203125q0.546875 0.203125 0.796875 0.515625q0.25 0.296875 0.359375 0.765625q0.046875 0.296875 0.046875 1.0625l0 1.515625q0 1.59375 0.078125 2.015625q0.078125 0.421875 0.28125 0.8125l-1.1875 0q-0.171875 -0.359375 -0.234375 -0.828125zm-0.09375 -2.5625q-0.625 0.265625 -1.859375 0.4375q-0.703125 0.109375 -1.0 0.234375q-0.296875 0.125 -0.453125 0.375q-0.15625 0.234375 -0.15625 0.53125q0 0.453125 0.34375 0.765625q0.34375 0.296875 1.015625 0.296875q0.65625 0 1.171875 -0.28125q0.515625 -0.296875 0.765625 -0.796875q0.171875 -0.375 0.171875 -1.140625l0 -0.421875z" fill-rule="nonzero"></path><path fill="#1f77b4" d="m636.19684 281.04987l0 0c0 -11.30661 15.955566 -20.472443 35.637817 -20.472443l0 0c19.68219 0 35.637756 9.1658325 35.637756 20.472443l0 0c0 11.30661 -15.955566 20.472443 -35.637756 20.472443l0 0c-19.682251 0 -35.637817 -9.1658325 -35.637817 -20.472443z" fill-rule="nonzero"></path><path stroke="#000000" stroke-width="1.0" stroke-linejoin="round" stroke-linecap="butt" d="m636.19684 281.04987l0 0c0 -11.30661 15.955566 -20.472443 35.637817 -20.472443l0 0c19.68219 0 35.637756 9.1658325 35.637756 20.472443l0 0c0 11.30661 -15.955566 20.472443 -35.637756 20.472443l0 0c-19.682251 0 -35.637817 -9.1658325 -35.637817 -20.472443z" fill-rule="nonzero"></path><path fill="#ffffff" d="m661.6037 286.90988l-1.40625 0l0 -8.96875q-0.515625 0.484375 -1.34375 0.96875q-0.8125 0.484375 -1.46875 0.734375l0 -1.359375q1.171875 -0.5625 2.046875 -1.34375q0.890625 -0.796875 1.265625 -1.53125l0.90625 0l0 11.5zm3.6015625 -5.65625q0 -2.03125 0.40625 -3.265625q0.421875 -1.234375 1.25 -1.90625q0.828125 -0.671875 2.078125 -0.671875q0.921875 0 1.609375 0.375q0.703125 0.359375 1.15625 1.0625q0.453125 0.703125 0.703125 1.703125q0.265625 1.0 0.265625 2.703125q0 2.015625 -0.421875 3.265625q-0.40625 1.234375 -1.234375 1.921875q-0.828125 0.671875 -2.078125 0.671875q-1.65625 0 -2.609375 -1.203125q-1.125 -1.421875 -1.125 -4.65625zm1.4375 0q0 2.828125 0.65625 3.765625q0.671875 0.921875 1.640625 0.921875q0.96875 0 1.625 -0.9375q0.65625 -0.9375 0.65625 -3.75q0 -2.828125 -0.65625 -3.75q-0.65625 -0.9375 -1.640625 -0.9375q-0.96875 0 -1.546875 0.828125q-0.734375 1.046875 -0.734375 3.859375zm9.6171875 -0.5625q-0.875 -0.3125 -1.296875 -0.90625q-0.421875 -0.59375 -0.421875 -1.421875q0 -1.25 0.890625 -2.09375q0.90625 -0.859375 2.40625 -0.859375q1.5 0 2.40625 0.875q0.921875 0.859375 0.921875 2.109375q0 0.796875 -0.421875 1.390625q-0.421875 0.59375 -1.265625 0.90625q1.046875 0.34375 1.59375 1.109375q0.5625 0.765625 0.5625 1.828125q0 1.46875 -1.046875 2.484375q-1.03125 1.0 -2.734375 1.0q-1.6875 0 -2.734375 -1.0q-1.03125 -1.015625 -1.03125 -2.515625q0 -1.125 0.5625 -1.875q0.5625 -0.75 1.609375 -1.03125zm-0.28125 -2.375q0 0.8125 0.515625 1.328125q0.53125 0.515625 1.375 0.515625q0.8125 0 1.328125 -0.515625q0.515625 -0.515625 0.515625 -1.25q0 -0.78125 -0.53125 -1.296875q-0.53125 -0.53125 -1.328125 -0.53125q-0.8125 0 -1.34375 0.515625q-0.53125 0.515625 -0.53125 1.234375zm-0.453125 5.28125q0 0.609375 0.28125 1.171875q0.296875 0.5625 0.859375 0.875q0.5625 0.296875 1.203125 0.296875q1.015625 0 1.671875 -0.640625q0.65625 -0.65625 0.65625 -1.65625q0 -1.015625 -0.6875 -1.671875q-0.671875 -0.671875 -1.6875 -0.671875q-0.984375 0 -1.640625 0.65625q-0.65625 0.65625 -0.65625 1.640625z" fill-rule="nonzero"></path><path fill="#000000" fill-opacity="0.0" d="m636.19604 54.136482c-6.9606323 8.770344 -31.8797 33.271652 -41.763733 52.622047c-9.884094 19.350395 -17.680237 42.59842 -17.54071 63.480316c0.13952637 20.881882 8.772095 43.435257 18.37799 61.81102c9.605835 18.375763 32.714294 40.36966 39.257202 48.443573" fill-rule="nonzero"></path><path stroke="#000000" stroke-width="1.0" stroke-linejoin="round" stroke-linecap="butt" d="m636.19604 54.136482c-6.9606323 8.770344 -31.8797 33.271652 -41.763733 52.622047c-9.884094 19.350395 -17.680237 42.59842 -17.54071 63.480316c0.1395874 20.881882 8.772095 43.435257 18.37799 61.81102c4.8029175 9.187866 12.981445 19.280289 20.777222 28.084991c3.8978271 4.402313 7.700012 8.482727 10.936584 11.967163c0.80914307 0.87112427 1.5829468 1.7049866 2.3140259 2.4973145c0.3656006 0.3961792 0.72052 0.7819519 1.0637817 1.1568298l0.20758057 0.22787476" fill-rule="evenodd"></path><path fill="#000000" stroke="#000000" stroke-width="1.0" stroke-linecap="butt" d="m629.32745 277.07364l4.2349854 2.3210754l-1.7522583 -4.500244z" fill-rule="evenodd"></path><path fill="#000000" fill-opacity="0.0" d="m633.6142 232.04987l76.44092 0l0 30.897644l-76.44092 0z" fill-rule="nonzero"></path><path fill="#000000" d="m642.4111 256.42798l0 -0.81248474l7.578125 0l0 0.81248474l-7.578125 0zm7.4124756 0l0 -0.81248474l7.578125 0l0 0.81248474l-7.578125 0zm12.849976 -2.5781097l0 -0.84375q-0.640625 1.0 -1.890625 1.0q-0.796875 0 -1.484375 -0.4375q-0.671875 -0.453125 -1.046875 -1.25q-0.375 -0.796875 -0.375 -1.828125q0 -1.015625 0.34375 -1.828125q0.34375 -0.828125 1.015625 -1.265625q0.671875 -0.4375 1.5 -0.4375q0.609375 0 1.078125 0.265625q0.484375 0.25 0.78125 0.65625l0 -3.34375l1.140625 0l0 9.3125l-1.0625 0zm-3.609375 -3.359375q0 1.296875 0.53125 1.9375q0.546875 0.640625 1.296875 0.640625q0.75 0 1.265625 -0.609375q0.53125 -0.625 0.53125 -1.875q0 -1.390625 -0.53125 -2.03125q-0.53125 -0.65625 -1.3125 -0.65625q-0.765625 0 -1.28125 0.625q-0.5 0.625 -0.5 1.96875zm11.037476 2.53125q-0.625 0.53125 -1.21875 0.765625q-0.578125 0.21875 -1.25 0.21875q-1.125 0 -1.71875 -0.546875q-0.59375 -0.546875 -0.59375 -1.390625q0 -0.484375 0.21875 -0.890625q0.234375 -0.421875 0.59375 -0.671875q0.375 -0.25 0.828125 -0.375q0.328125 -0.078125 1.015625 -0.171875q1.375 -0.15625 2.03125 -0.390625q0.015625 -0.234375 0.015625 -0.296875q0 -0.703125 -0.328125 -0.984375q-0.4375 -0.390625 -1.296875 -0.390625q-0.8125 0 -1.203125 0.28125q-0.375 0.28125 -0.5625 1.0l-1.109375 -0.140625q0.140625 -0.71875 0.484375 -1.15625q0.359375 -0.453125 1.015625 -0.6875q0.671875 -0.234375 1.53125 -0.234375q0.875 0 1.40625 0.203125q0.546875 0.203125 0.796875 0.515625q0.25 0.296875 0.359375 0.765625q0.046875 0.296875 0.046875 1.0625l0 1.515625q0 1.59375 0.078125 2.015625q0.078125 0.421875 0.28125 0.8125l-1.1875 0q-0.171875 -0.359375 -0.234375 -0.828125zm-0.09375 -2.5625q-0.625 0.265625 -1.859375 0.4375q-0.703125 0.109375 -1.0 0.234375q-0.296875 0.125 -0.453125 0.375q-0.15625 0.234375 -0.15625 0.53125q0 0.453125 0.34375 0.765625q0.34375 0.296875 1.015625 0.296875q0.65625 0 1.171875 -0.28125q0.515625 -0.296875 0.765625 -0.796875q0.171875 -0.375 0.171875 -1.140625l0 -0.421875zm5.6156006 2.375l0.15625 1.0q-0.484375 0.109375 -0.859375 0.109375q-0.625 0 -0.96875 -0.203125q-0.34375 -0.203125 -0.484375 -0.515625q-0.140625 -0.328125 -0.140625 -1.34375l0 -3.890625l-0.828125 0l0 -0.875l0.828125 0l0 -1.671875l1.140625 -0.6875l0 2.359375l1.15625 0l0 0.875l-1.15625 0l0 3.953125q0 0.484375 0.0625 0.625q0.0625 0.140625 0.1875 0.21875q0.140625 0.078125 0.390625 0.078125q0.203125 0 0.515625 -0.03125zm5.593567 0.1875q-0.625 0.53125 -1.21875 0.765625q-0.578125 0.21875 -1.25 0.21875q-1.125 0 -1.71875 -0.546875q-0.59375 -0.546875 -0.59375 -1.390625q0 -0.484375 0.21875 -0.890625q0.234375 -0.421875 0.59375 -0.671875q0.375 -0.25 0.828125 -0.375q0.328125 -0.078125 1.015625 -0.171875q1.375 -0.15625 2.03125 -0.390625q0.015625 -0.234375 0.015625 -0.296875q0 -0.703125 -0.328125 -0.984375q-0.4375 -0.390625 -1.296875 -0.390625q-0.8125 0 -1.203125 0.28125q-0.375 0.28125 -0.5625 1.0l-1.109375 -0.140625q0.140625 -0.71875 0.484375 -1.15625q0.359375 -0.453125 1.015625 -0.6875q0.671875 -0.234375 1.53125 -0.234375q0.875 0 1.40625 0.203125q0.546875 0.203125 0.796875 0.515625q0.25 0.296875 0.359375 0.765625q0.046875 0.296875 0.046875 1.0625l0 1.515625q0 1.59375 0.078125 2.015625q0.078125 0.421875 0.28125 0.8125l-1.1875 0q-0.171875 -0.359375 -0.234375 -0.828125zm-0.09375 -2.5625q-0.625 0.265625 -1.859375 0.4375q-0.703125 0.109375 -1.0 0.234375q-0.296875 0.125 -0.453125 0.375q-0.15625 0.234375 -0.15625 0.53125q0 0.453125 0.34375 0.765625q0.34375 0.296875 1.015625 0.296875q0.65625 0 1.171875 -0.28125q0.515625 -0.296875 0.765625 -0.796875q0.171875 -0.375 0.171875 -1.140625l0 -0.421875zm2.0531006 5.9687347l0 -0.81248474l7.578125 0l0 0.81248474l-7.578125 0zm7.4124756 0l0 -0.81248474l7.578125 0l0 0.81248474l-7.578125 0z" fill-rule="nonzero"></path><path fill="#1f77b4" d="m444.5013 288.6404l0 0c0 -11.30661 15.955597 -20.472443 35.637787 -20.472443l0 0c19.68222 0 35.637817 9.1658325 35.637817 20.472443l0 0c0 11.306641 -15.955597 20.472443 -35.637817 20.472443l0 0c-19.68219 0 -35.637787 -9.165802 -35.637787 -20.472443z" fill-rule="nonzero"></path><path stroke="#000000" stroke-width="1.0" stroke-linejoin="round" stroke-linecap="butt" d="m444.5013 288.6404l0 0c0 -11.30661 15.955597 -20.472443 35.637787 -20.472443l0 0c19.68222 0 35.637817 9.1658325 35.637817 20.472443l0 0c0 11.306641 -15.955597 20.472443 -35.637817 20.472443l0 0c-19.68219 0 -35.637787 -9.165802 -35.637787 -20.472443z" fill-rule="nonzero"></path><path fill="#ffffff" d="m472.48206 288.18542q-1.046875 -0.375 -1.546875 -1.078125q-0.5 -0.71875 -0.5 -1.703125q0 -1.484375 1.0625 -2.484375q1.078125 -1.015625 2.84375 -1.015625q1.78125 0 2.859375 1.03125q1.09375 1.03125 1.09375 2.515625q0 0.953125 -0.5 1.65625q-0.484375 0.703125 -1.5 1.078125q1.25 0.40625 1.90625 1.3125q0.65625 0.90625 0.65625 2.171875q0 1.75 -1.234375 2.9375q-1.234375 1.1875 -3.25 1.1875q-2.015625 0 -3.25 -1.1875q-1.234375 -1.203125 -1.234375 -2.984375q0 -1.328125 0.671875 -2.21875q0.671875 -0.890625 1.921875 -1.21875zm-0.328125 -2.828125q0 0.96875 0.609375 1.578125q0.625 0.609375 1.625 0.609375q0.953125 0 1.5625 -0.609375q0.625 -0.609375 0.625 -1.484375q0 -0.921875 -0.640625 -1.546875q-0.625 -0.625 -1.578125 -0.625q-0.953125 0 -1.578125 0.609375q-0.625 0.609375 -0.625 1.46875zm-0.546875 6.28125q0 0.71875 0.328125 1.390625q0.34375 0.65625 1.015625 1.03125q0.671875 0.359375 1.4375 0.359375q1.203125 0 1.984375 -0.765625q0.78125 -0.78125 0.78125 -1.96875q0 -1.203125 -0.8125 -1.984375q-0.796875 -0.796875 -2.0 -0.796875q-1.1875 0 -1.96875 0.78125q-0.765625 0.78125 -0.765625 1.953125zm8.797607 -7.890625l0 -1.609375l8.796875 0l0 1.296875q-1.296875 1.375 -2.578125 3.671875q-1.265625 2.296875 -1.96875 4.71875q-0.5 1.703125 -0.640625 3.734375l-1.71875 0q0.03125 -1.609375 0.625 -3.875q0.609375 -2.28125 1.734375 -4.390625q1.140625 -2.109375 2.40625 -3.546875l-6.65625 0z" fill-rule="nonzero"></path><path fill="#000000" fill-opacity="0.0" d="m441.91864 239.64043l76.44092 0l0 30.897629l-76.44092 0z" fill-rule="nonzero"></path><path fill="#000000" d="m450.7155 264.01855l0 -0.8125l7.578125 0l0 0.8125l-7.578125 0zm7.4124756 0l0 -0.8125l7.578125 0l0 0.8125l-7.578125 0zm12.849976 -2.578125l0 -0.84375q-0.640625 1.0 -1.890625 1.0q-0.796875 0 -1.484375 -0.4375q-0.671875 -0.453125 -1.046875 -1.25q-0.375 -0.796875 -0.375 -1.828125q0 -1.015625 0.34375 -1.828125q0.34375 -0.82814026 1.015625 -1.2656403q0.671875 -0.4375 1.5 -0.4375q0.609375 0 1.078125 0.265625q0.484375 0.25 0.78125 0.65625l0 -3.34375l1.140625 0l0 9.312515l-1.0625 0zm-3.609375 -3.359375q0 1.296875 0.53125 1.9375q0.546875 0.640625 1.296875 0.640625q0.75 0 1.265625 -0.609375q0.53125 -0.625 0.53125 -1.875q0 -1.390625 -0.53125 -2.03125q-0.53125 -0.65626526 -1.3125 -0.65626526q-0.765625 0 -1.28125 0.62501526q-0.5 0.625 -0.5 1.96875zm11.037476 2.53125q-0.625 0.53125 -1.21875 0.765625q-0.578125 0.21875 -1.25 0.21875q-1.125 0 -1.71875 -0.546875q-0.59375 -0.546875 -0.59375 -1.390625q0 -0.484375 0.21875 -0.890625q0.234375 -0.421875 0.59375 -0.671875q0.375 -0.25 0.828125 -0.375q0.328125 -0.078125 1.015625 -0.171875q1.375 -0.15625 2.03125 -0.390625q0.015625 -0.234375 0.015625 -0.296875q0 -0.703125 -0.328125 -0.98439026q-0.4375 -0.390625 -1.296875 -0.390625q-0.8125 0 -1.203125 0.28125q-0.375 0.28126526 -0.5625 1.0000153l-1.109375 -0.140625q0.140625 -0.71876526 0.484375 -1.1562653q0.359375 -0.453125 1.015625 -0.6875q0.671875 -0.234375 1.53125 -0.234375q0.875 0 1.40625 0.203125q0.546875 0.203125 0.796875 0.515625q0.25 0.296875 0.359375 0.76564026q0.046875 0.296875 0.046875 1.0625l0 1.515625q0 1.59375 0.078125 2.015625q0.078125 0.421875 0.28125 0.8125l-1.1875 0q-0.171875 -0.359375 -0.234375 -0.828125zm-0.09375 -2.5625q-0.625 0.265625 -1.859375 0.4375q-0.703125 0.109375 -1.0 0.234375q-0.296875 0.125 -0.453125 0.375q-0.15625 0.234375 -0.15625 0.53125q0 0.453125 0.34375 0.765625q0.34375 0.296875 1.015625 0.296875q0.65625 0 1.171875 -0.28125q0.515625 -0.296875 0.765625 -0.796875q0.171875 -0.375 0.171875 -1.140625l0 -0.421875zm5.6156006 2.375l0.15625 1.0q-0.484375 0.109375 -0.859375 0.109375q-0.625 0 -0.96875 -0.203125q-0.34375 -0.203125 -0.484375 -0.515625q-0.140625 -0.328125 -0.140625 -1.34375l0 -3.8906403l-0.828125 0l0 -0.875l0.828125 0l0 -1.671875l1.140625 -0.6875l0 2.359375l1.15625 0l0 0.875l-1.15625 0l0 3.9531403q0 0.484375 0.0625 0.625q0.0625 0.140625 0.1875 0.21875q0.140625 0.078125 0.390625 0.078125q0.203125 0 0.515625 -0.03125zm5.5935974 0.1875q-0.625 0.53125 -1.21875 0.765625q-0.578125 0.21875 -1.25 0.21875q-1.125 0 -1.71875 -0.546875q-0.59375 -0.546875 -0.59375 -1.390625q0 -0.484375 0.21875 -0.890625q0.234375 -0.421875 0.59375 -0.671875q0.375 -0.25 0.828125 -0.375q0.328125 -0.078125 1.015625 -0.171875q1.375 -0.15625 2.03125 -0.390625q0.015625 -0.234375 0.015625 -0.296875q0 -0.703125 -0.328125 -0.98439026q-0.4375 -0.390625 -1.296875 -0.390625q-0.8125 0 -1.203125 0.28125q-0.375 0.28126526 -0.5625 1.0000153l-1.109375 -0.140625q0.140625 -0.71876526 0.484375 -1.1562653q0.359375 -0.453125 1.015625 -0.6875q0.671875 -0.234375 1.53125 -0.234375q0.875 0 1.40625 0.203125q0.546875 0.203125 0.796875 0.515625q0.25 0.296875 0.359375 0.76564026q0.046875 0.296875 0.046875 1.0625l0 1.515625q0 1.59375 0.078125 2.015625q0.078125 0.421875 0.28125 0.8125l-1.1875 0q-0.171875 -0.359375 -0.234375 -0.828125zm-0.09375 -2.5625q-0.625 0.265625 -1.859375 0.4375q-0.703125 0.109375 -1.0 0.234375q-0.296875 0.125 -0.453125 0.375q-0.15625 0.234375 -0.15625 0.53125q0 0.453125 0.34375 0.765625q0.34375 0.296875 1.015625 0.296875q0.65625 0 1.171875 -0.28125q0.515625 -0.296875 0.765625 -0.796875q0.171875 -0.375 0.171875 -1.140625l0 -0.421875zm2.0531006 5.96875l0 -0.8125l7.578125 0l0 0.8125l-7.578125 0zm7.4124756 0l0 -0.8125l7.578125 0l0 0.8125l-7.578125 0z" fill-rule="nonzero"></path><path fill="#ff7f0e" d="m625.54987 372.03937l90.236206 0l0 40.944885l-90.236206 0z" fill-rule="nonzero"></path><path stroke="#000000" stroke-width="2.0" stroke-linejoin="round" stroke-linecap="butt" d="m625.54987 372.03937l90.236206 0l0 40.944885l-90.236206 0z" fill-rule="nonzero"></path><path fill="#000000" d="m635.59674 393.4787l0 -1.546875l9.0 -3.8125l0 1.65625l-7.140625 2.9375l7.140625 2.96875l0 1.65625l-9.0 -3.859375zm11.0980835 9.734375l0 -13.640625l1.53125 0l0 1.28125q0.53125 -0.75 1.203125 -1.125q0.6875 -0.375 1.640625 -0.375q1.265625 0 2.234375 0.65625q0.96875 0.640625 1.453125 1.828125q0.5 1.1875 0.5 2.59375q0 1.515625 -0.546875 2.734375q-0.546875 1.203125 -1.578125 1.84375q-1.03125 0.640625 -2.171875 0.640625q-0.84375 0 -1.515625 -0.34375q-0.65625 -0.359375 -1.078125 -0.890625l0 4.796875l-1.671875 0zm1.515625 -8.65625q0 1.90625 0.765625 2.8125q0.78125 0.90625 1.875 0.90625q1.109375 0 1.890625 -0.9375q0.796875 -0.9375 0.796875 -2.921875q0 -1.875 -0.78125 -2.8125q-0.765625 -0.9375 -1.84375 -0.9375q-1.0625 0 -1.890625 1.0q-0.8125 1.0 -0.8125 2.890625zm17.656982 -1.078125l-9.0 3.859375l0 -1.65625l7.125 -2.96875l-7.125 -2.9375l0 -1.65625l9.0 3.8125l0 1.546875zm1.8949585 0l0 -1.546875l9.0 -3.8125l0 1.65625l-7.140625 2.9375l7.140625 2.96875l0 1.65625l-9.0 -3.859375zm9.8480835 6.1875l3.9375 -14.0625l1.34375 0l-3.9375 14.0625l-1.34375 0zm6.4332886 3.546875l0 -13.640625l1.53125 0l0 1.28125q0.53125 -0.75 1.203125 -1.125q0.6875 -0.375 1.640625 -0.375q1.265625 0 2.234375 0.65625q0.96875 0.640625 1.453125 1.828125q0.5 1.1875 0.5 2.59375q0 1.515625 -0.546875 2.734375q-0.546875 1.203125 -1.578125 1.84375q-1.03125 0.640625 -2.171875 0.640625q-0.84375 0 -1.515625 -0.34375q-0.65625 -0.359375 -1.078125 -0.890625l0 4.796875l-1.671875 0zm1.515625 -8.65625q0 1.90625 0.765625 2.8125q0.78125 0.90625 1.875 0.90625q1.109375 0 1.890625 -0.9375q0.796875 -0.9375 0.796875 -2.921875q0 -1.875 -0.78125 -2.8125q-0.765625 -0.9375 -1.84375 -0.9375q-1.0625 0 -1.890625 1.0q-0.8125 1.0 -0.8125 2.890625zm17.656982 -1.078125l-9.0 3.859375l0 -1.65625l7.125 -2.96875l-7.125 -2.9375l0 -1.65625l9.0 3.8125l0 1.546875z" fill-rule="nonzero"></path><path fill="#000000" fill-opacity="0.0" d="m715.7861 372.03674c5.4295654 -6.9606323 25.338135 -27.007446 32.577454 -41.763763c7.239258 -14.756348 11.136902 -30.486877 10.858276 -46.774292c-0.27868652 -16.287415 -5.8477783 -36.750656 -12.530212 -50.950134c-6.682373 -14.199478 -22.970215 -28.538925 -27.56427 -34.24672" fill-rule="nonzero"></path><path stroke="#000000" stroke-width="2.0" stroke-linejoin="round" stroke-linecap="butt" d="m715.7861 372.03674c5.4295654 -6.9606323 25.338196 -27.007416 32.577454 -41.763763c7.239258 -14.756348 11.136902 -30.486877 10.858276 -46.774292c-0.2786255 -16.287415 -5.8477783 -36.750656 -12.530212 -50.950134c-3.3411865 -7.0997314 -9.08374 -14.234482 -14.565247 -20.30774c-1.3704224 -1.5183105 -2.7244263 -2.9702911 -4.02063 -4.338806l-0.7885132 -0.8294678" fill-rule="evenodd"></path><path fill="#000000" stroke="#000000" stroke-width="2.0" stroke-linecap="butt" d="m729.7317 204.81796l-8.608948 -4.379135l3.7799683 8.888321z" fill-rule="evenodd"></path></g></svg>

